<svg viewBox="-86 0 512 512" xmlns="http://www.w3.org/2000/svg"><path d="m42 502h256c17.671875 0 32-14.328125 32-32v-428c0-17.671875-14.328125-32-32-32h-256c-17.671875 0-32 14.328125-32 32v428c0 17.671875 14.328125 32 32 32zm0 0" fill="#72d8ff"/><path d="m50 82h240v348h-240zm0 0" fill="#fff"/><path d="m207.894531 56h-75.789062c-5.523438 0-10-4.476562-10-10s4.476562-10 10-10h75.789062c5.523438 0 10 4.476562 10 10s-4.476562 10-10 10zm0 0"/><path d="m10 154.328125c-2.628906 0-5.210938-1.058594-7.070312-2.929687-1.859376-1.859376-2.929688-4.4375-2.929688-7.070313 0-2.628906 1.070312-5.210937 2.929688-7.066406 1.859374-1.863281 4.441406-2.933594 7.070312-2.933594s5.210938 1.070313 7.070312 2.933594c1.859376 1.855469 2.929688 4.4375 2.929688 7.066406 0 2.632813-1.070312 5.210937-2.929688 7.070313-1.859374 1.871093-4.441406 2.929687-7.070312 2.929687zm0 0"/><path d="m298 512h-256c-23.160156 0-42-18.839844-42-42v-288.335938c0-5.519531 4.476562-10 10-10s10 4.480469 10 10v288.335938c0 12.132812 9.867188 22 22 22h256c12.132812 0 22-9.867188 22-22v-428c0-12.132812-9.867188-22-22-22h-256c-12.132812 0-22 9.867188-22 22v66.332031c0 5.523438-4.476562 10-10 10s-10-4.476562-10-10v-66.332031c0-23.160156 18.839844-42 42-42h256c23.160156 0 42 18.839844 42 42v428c0 23.160156-18.839844 42-42 42zm0 0"/><path d="m170 473.238281c-2.628906 0-5.210938-1.066406-7.070312-2.929687-1.859376-1.859375-2.929688-4.441406-2.929688-7.070313 0-2.628906 1.070312-5.210937 2.929688-7.066406 1.859374-1.863281 4.441406-2.933594 7.070312-2.933594s5.210938 1.070313 7.070312 2.933594c1.859376 1.855469 2.929688 4.4375 2.929688 7.066406 0 2.628907-1.070312 5.210938-2.929688 7.070313-1.859374 1.859375-4.441406 2.929687-7.070312 2.929687zm0 0"/><path d="m290 440h-240c-5.523438 0-10-4.476562-10-10v-348c0-5.523438 4.476562-10 10-10h240c5.523438 0 10 4.476562 10 10v348c0 5.523438-4.476562 10-10 10zm-230-20h220v-328h-220zm0 0"/><path d="m192.859375 163c-9.003906 0-17.125 3.941406-22.859375 10.261719-5.734375-6.320313-13.855469-10.261719-22.859375-10.261719-17.378906 0-31.464844 14.6875-31.464844 32.800781 0 30.539063 54.324219 60.328125 54.324219 60.328125s54.324219-29.789062 54.324219-60.328125c0-18.117187-14.085938-32.800781-31.464844-32.800781zm0 0" fill="#ff5d5d"/><path d="m170 266.128906c-1.65625 0-3.3125-.410156-4.808594-1.234375-6.089844-3.339843-59.515625-33.65625-59.515625-69.09375 0-23.601562 18.601563-42.800781 41.464844-42.800781 8.164063 0 16.128906 2.519531 22.859375 7.101562 6.730469-4.582031 14.695312-7.101562 22.859375-7.101562 22.863281 0 41.464844 19.199219 41.464844 42.800781 0 35.4375-53.425781 65.753907-59.515625 69.09375-1.496094.824219-3.152344 1.234375-4.808594 1.234375zm-22.859375-93.128906c-11.835937 0-21.464844 10.230469-21.464844 22.800781 0 17.960938 29.070313 39.421875 44.347657 48.769531 18.863281-11.398437 44.304687-32.347656 44.304687-48.769531 0-12.570312-9.632813-22.800781-21.46875-22.800781-5.878906 0-11.367187 2.480469-15.453125 6.980469-1.898438 2.089843-4.585938 3.28125-7.40625 3.28125s-5.507812-1.191407-7.402344-3.28125c-4.089844-4.5-9.578125-6.980469-15.457031-6.980469zm0 0"/><path d="m208.871094 318.332031h-77.742188c-5.523437 0-10-4.476562-10-10 0-5.519531 4.476563-10 10-10h77.742188c5.523437 0 10 4.480469 10 10 0 5.523438-4.476563 10-10 10zm0 0"/><path d="m208.871094 366.332031h-77.742188c-5.523437 0-10-4.476562-10-10 0-5.519531 4.476563-10 10-10h77.742188c5.523437 0 10 4.480469 10 10 0 5.523438-4.476563 10-10 10zm0 0"/></svg>